<svg xmlns="http://www.w3.org/2000/svg" viewBox="0 0 400 160" width="400" height="160" role="img" aria-label="Сравнение ИП и ООО">
  <rect width="400" height="160" fill="#F4F4F5"/>
  <g opacity="0.5" fill="#DEDEE1">
    <circle cx="352" cy="28" r="3"/><circle cx="372" cy="28" r="3"/><circle cx="352" cy="48" r="3"/><circle cx="372" cy="48" r="3"/>
  </g>
  <!-- карточка ИП -->
  <g>
    <rect x="80" y="34" width="104" height="92" rx="10" fill="#fff" stroke="#D8D8DC" stroke-width="1.5"/>
    <rect x="80" y="34" width="104" height="6" rx="3" fill="#B2B2B8"/>
    <g transform="translate(118 60)">
      <circle cy="0" r="10" fill="#B2B2B8"/>
      <path d="M-14 22c0-9 6-15 14-15s14 6 14 15z" fill="#B2B2B8"/>
    </g>
    <rect x="102" y="98" width="60" height="6" rx="3" fill="#DEDEE1"/>
    <rect x="114" y="110" width="36" height="5" rx="2.5" fill="#E4E4E7"/>
  </g>
  <!-- карточка ООО -->
  <g>
    <rect x="216" y="34" width="104" height="92" rx="10" fill="#fff" stroke="#D8D8DC" stroke-width="1.5"/>
    <rect x="216" y="34" width="104" height="6" rx="3" fill="#F07828"/>
    <g transform="translate(254 56)">
      <circle cx="0" cy="4" r="9" fill="#F07828"/>
      <circle cx="14" cy="0" r="7" fill="#F07828" opacity="0.65"/>
      <path d="M-13 26c0-8 6-14 13-14s13 6 13 14z" fill="#F07828"/>
      <path d="M8 26c0-6 4-11 10-11s10 5 10 11z" fill="#F07828" opacity="0.65"/>
    </g>
    <rect x="238" y="98" width="60" height="6" rx="3" fill="#DEDEE1"/>
    <rect x="250" y="110" width="36" height="5" rx="2.5" fill="#E4E4E7"/>
  </g>
  <!-- разделитель «или» -->
  <g transform="translate(200 80)">
    <circle r="17" fill="#3D3D3D"/>
    <path d="M-5 6 5 -6" stroke="#fff" stroke-width="2.8" stroke-linecap="round"/>
  </g>
</svg>
